<svg width="48" height="48" viewBox="0 0 48 48" fill="none" xmlns="http://www.w3.org/2000/svg">
<path d="M6.85714 0C3.075 0 0 3.075 0 6.85714V41.1429C0 44.925 3.075 48 6.85714 48H41.1429C44.925 48 48 44.925 48 41.1429V6.85714C48 3.075 44.925 0 41.1429 0H6.85714ZM38.6893 9L27.5679 21.7071L40.65 39H30.4071L22.3929 28.5107L13.2107 39H8.12143L20.0143 25.4036L7.46786 9H17.9679L25.2214 18.5893L33.6 9H38.6893ZM34.6393 35.9571L16.4357 11.8821H13.4036L31.8107 35.9571H34.6286H34.6393Z" fill="url(#paint0_radial_4_13)"/>
<defs>
<radialGradient id="paint0_radial_4_13" cx="0" cy="0" r="1" gradientUnits="userSpaceOnUse" gradientTransform="translate(24 24) rotate(90) scale(24)">
<stop stop-color="white"/>
<stop offset="0.644231" stop-color="#96FF96"/>
<stop offset="0.841346" stop-color="#65FF65"/>
<stop offset="1" stop-color="#00FF00"/>
</radialGradient>
</defs>
</svg>
