<svg width="48" height="48" viewBox="0 0 48 48" fill="none" xmlns="http://www.w3.org/2000/svg">
<path d="M6.85714 0C3.075 0 0 3.075 0 6.85714V41.1429C0 44.925 3.075 48 6.85714 48H17.3786V32.3786H11.7214V24H17.3786V20.3893C17.3786 11.0571 21.6 6.72857 30.7714 6.72857C32.5071 6.72857 35.5071 7.07143 36.7393 7.41429V15C36.0964 14.9357 34.9714 14.8929 33.5679 14.8929C29.0679 14.8929 27.3321 16.5964 27.3321 21.0214V24H36.2893L34.7464 32.3786H27.3214V48H41.1429C44.925 48 48 44.925 48 41.1429V6.85714C48 3.075 44.925 0 41.1429 0H6.85714Z" fill="url(#paint0_linear_4_16)"/>
<defs>
<linearGradient id="paint0_linear_4_16" x1="24" y1="0" x2="24" y2="48" gradientUnits="userSpaceOnUse">
<stop stop-color="#00FF00"/>
<stop offset="1" stop-color="#AAFFAA"/>
</linearGradient>
</defs>
</svg>
